<mxfile host="app.diagrams.net" modified="2023-09-25T00:43:07.129Z" agent="Mozilla/5.0 (Macintosh; Intel Mac OS X 10.15; rv:109.0) Gecko/20100101 Firefox/118.0" etag="1hwoyURTS_RX40s6JwUH" version="21.7.5" type="github">
  <diagram name="Page-1" id="Xu3BM50Ehq_t5ymOw5oX">
    <mxGraphModel dx="794" dy="542" grid="1" gridSize="10" guides="1" tooltips="1" connect="1" arrows="1" fold="1" page="1" pageScale="1" pageWidth="850" pageHeight="1100" math="0" shadow="0">
      <root>
        <mxCell id="0" />
        <mxCell id="1" parent="0" />
        <mxCell id="GjRpA3CjUmJXCyc9qtqF-2" value="" style="ellipse;whiteSpace=wrap;html=1;" vertex="1" parent="1">
          <mxGeometry x="420" y="70" width="120" height="80" as="geometry" />
        </mxCell>
      </root>
    </mxGraphModel>
  </diagram>
</mxfile>
